<?xml version="1.0" encoding="UTF-8" standalone="no"?>
<!DOCTYPE svg PUBLIC "-//W3C//DTD SVG 1.1//EN" "http://www.w3.org/Graphics/SVG/1.1/DTD/svg11.dtd">
<svg width="100%" height="100%" viewBox="0 0 86 86" version="1.1" xmlns="http://www.w3.org/2000/svg" xmlns:xlink="http://www.w3.org/1999/xlink" xml:space="preserve" xmlns:serif="http://www.serif.com/" style="fill-rule:evenodd;clip-rule:evenodd;stroke-linejoin:round;stroke-miterlimit:2;">
    <g id="Artboard1" transform="matrix(0.333333,0,0,0.333333,0,0)">
        <rect x="0" y="0" width="256" height="256" style="fill:none;"/>
    </g>
    <g id="Artboard11" serif:id="Artboard1" transform="matrix(0.333333,0,0,0.333333,0,0)">
        <g transform="matrix(1.179134,0,0,1.07891,-20.187437,-8.400432)">
            <path d="M192.737,19.531C199.189,19.531 204.42,25.248 204.42,32.3L204.42,222.847C204.42,229.899 199.189,235.616 192.737,235.616L58.613,235.616C52.16,235.616 46.929,229.899 46.929,222.847L46.929,32.3C46.929,25.248 52.16,19.531 58.613,19.531L192.737,19.531Z" style="fill:white;"/>
        </g>
        <g transform="matrix(1.179134,0,0,1.07891,-20.187437,-8.400432)">
            <path d="M192.737,13.964C202.002,13.964 209.514,22.174 209.514,32.3L209.514,222.847C209.514,232.974 202.002,241.183 192.737,241.183L58.613,241.183C49.347,241.183 41.836,232.974 41.836,222.847L41.836,32.3C41.836,22.174 49.347,13.964 58.613,13.964L192.737,13.964ZM192.737,19.531L58.613,19.531C52.16,19.531 46.929,25.248 46.929,32.3L46.929,222.847C46.929,229.899 52.16,235.616 58.613,235.616L192.737,235.616C199.189,235.616 204.42,229.899 204.42,222.847L204.42,32.3C204.42,25.248 199.189,19.531 192.737,19.531Z" style="fill:rgb(112,160,210);"/>
        </g>
        <g transform="matrix(1,0,0,0.730551,91.560876,13.618897)">
            <path d="M23.704,226.781C23.704,232.773 20.15,237.638 15.772,237.638C11.394,237.638 7.84,232.773 7.84,226.781L7.84,89.751C7.84,83.759 11.394,78.893 15.772,78.893C20.15,78.893 23.704,83.759 23.704,89.751L23.704,226.781Z" style="fill:rgb(112,160,210);"/>
        </g>
        <g transform="matrix(0,1,-0.234489,0,104.447303,65.701551)">
            <path d="M23.704,226.781C23.704,245.45 20.15,260.608 15.772,260.608C11.394,260.608 7.84,245.45 7.84,226.781L7.84,89.751C7.84,71.081 11.394,55.924 15.772,55.924C20.15,55.924 23.704,71.081 23.704,89.751L23.704,226.781Z" style="fill:rgb(210,112,198);"/>
        </g>
        <g transform="matrix(0,1,-0.234489,0,183.853519,88.972269)">
            <path d="M23.704,226.781C23.704,245.45 20.15,260.608 15.772,260.608C11.394,260.608 7.84,245.45 7.84,226.781L7.84,89.751C7.84,71.081 11.394,55.924 15.772,55.924C20.15,55.924 23.704,71.081 23.704,89.751L23.704,226.781Z" style="fill:rgb(210,161,112);"/>
        </g>
        <g transform="matrix(0,1,-0.422188,0,226.419978,109.385186)">
            <path d="M23.704,226.781C23.704,237.15 20.15,245.569 15.772,245.569C11.394,245.569 7.84,237.15 7.84,226.781L7.84,89.751C7.84,79.382 11.394,70.963 15.772,70.963C20.15,70.963 23.704,79.382 23.704,89.751L23.704,226.781Z" style="fill:rgb(210,161,112);"/>
        </g>
        <g transform="matrix(0,1,-0.155536,0,165.948559,131.022877)">
            <path d="M23.704,226.781C23.704,254.927 20.15,277.779 15.772,277.779C11.394,277.779 7.84,254.927 7.84,226.781L7.84,89.751C7.84,61.604 11.394,38.753 15.772,38.753C20.15,38.753 23.704,61.604 23.704,89.751L23.704,226.781Z" style="fill:rgb(135,210,112);"/>
        </g>
        <g transform="matrix(0,1,-0.202794,0,223.861307,131.022877)">
            <path d="M23.704,226.781C23.704,248.368 20.15,265.895 15.772,265.895C11.394,265.895 7.84,248.368 7.84,226.781L7.84,89.751C7.84,68.163 11.394,50.637 15.772,50.637C20.15,50.637 23.704,68.163 23.704,89.751L23.704,226.781Z" style="fill:rgb(135,210,112);"/>
        </g>
        <g transform="matrix(0,1,-0.422188,0,226.419978,152.252317)">
            <path d="M23.704,226.781C23.704,237.15 20.15,245.569 15.772,245.569C11.394,245.569 7.84,237.15 7.84,226.781L7.84,89.751C7.84,79.382 11.394,70.963 15.772,70.963C20.15,70.963 23.704,79.382 23.704,89.751L23.704,226.781Z" style="fill:rgb(135,210,112);"/>
        </g>
        <g transform="matrix(0,1,-0.234489,0,104.447303,109.385186)">
            <path d="M23.704,226.781C23.704,245.45 20.15,260.608 15.772,260.608C11.394,260.608 7.84,245.45 7.84,226.781L7.84,89.751C7.84,71.081 11.394,55.924 15.772,55.924C20.15,55.924 23.704,71.081 23.704,89.751L23.704,226.781Z" style="fill:rgb(210,112,198);"/>
        </g>
        <g transform="matrix(0,1,-0.547214,0,254.773384,65.701551)">
            <path d="M23.704,226.781C23.704,234.781 20.15,241.276 15.772,241.276C11.394,241.276 7.84,234.781 7.84,226.781L7.84,89.751C7.84,81.751 11.394,75.256 15.772,75.256C20.15,75.256 23.704,81.751 23.704,89.751L23.704,226.781Z" style="fill:rgb(210,161,112);"/>
        </g>
        <g transform="matrix(0,1,-0.560621,0,178.31636,13.852765)">
            <path d="M23.704,226.781C23.704,234.589 20.15,240.929 15.772,240.929C11.394,240.929 7.84,234.589 7.84,226.781L7.84,89.751C7.84,81.942 11.394,75.602 15.772,75.602C20.15,75.602 23.704,81.942 23.704,89.751L23.704,226.781Z" style="fill:rgb(99,113,206);"/>
        </g>
        <g transform="matrix(0,1,-0.311845,0,121.898925,215.73643)">
            <path d="M23.704,226.781C23.704,240.819 20.15,252.217 15.772,252.217C11.394,252.217 7.84,240.819 7.84,226.781L7.84,89.751C7.84,75.713 11.394,64.315 15.772,64.315C20.15,64.315 23.704,75.713 23.704,89.751L23.704,226.781Z" style="fill:rgb(99,113,206);"/>
        </g>
        <g transform="matrix(0,1,-0.311845,0,186.199569,215.73643)">
            <path d="M23.704,226.781C23.704,240.819 20.15,252.217 15.772,252.217C11.394,252.217 7.84,240.819 7.84,226.781L7.84,89.751C7.84,75.713 11.394,64.315 15.772,64.315C20.15,64.315 23.704,75.713 23.704,89.751L23.704,226.781Z" style="fill:rgb(99,113,206);"/>
        </g>
        <g transform="matrix(0,1,-1.126697,0,306.782655,37.357557)">
            <path d="M23.704,226.781C23.704,230.666 20.15,233.821 15.772,233.821C11.394,233.821 7.84,230.666 7.84,226.781L7.84,89.751C7.84,85.866 11.394,82.711 15.772,82.711C20.15,82.711 23.704,85.866 23.704,89.751L23.704,226.781Z" style="fill:rgb(112,160,210);"/>
        </g>
        <g transform="matrix(0,1,-1.126697,0,306.317623,187.314037)">
            <path d="M23.704,226.781C23.704,230.666 20.15,233.821 15.772,233.821C11.394,233.821 7.84,230.666 7.84,226.781L7.84,89.751C7.84,85.866 11.394,82.711 15.772,82.711C20.15,82.711 23.704,85.866 23.704,89.751L23.704,226.781Z" style="fill:rgb(112,160,210);"/>
        </g>
    </g>
</svg>
